<svg width="24" height="24" viewBox="0 0 24 24" fill="none" xmlns="http://www.w3.org/2000/svg">
<path d="M19 13.9007V7.0993C18.9997 6.80112 18.9174 6.50827 18.7614 6.25012C18.6054 5.99196 18.3811 5.77759 18.1111 5.6285L11.8889 2.2278C11.6186 2.07857 11.3121 2 11 2C10.6879 2 10.3814 2.07857 10.1111 2.2278L3.88889 5.6285C3.6189 5.77759 3.39465 5.99196 3.23863 6.25012C3.08262 6.50827 3.00032 6.80112 3 7.0993V13.9007C3.00032 14.1989 3.08262 14.4917 3.23863 14.7499C3.39465 15.008 3.6189 15.2224 3.88889 15.3715L10.1111 18.7722C10.3814 18.9214 10.6879 19 11 19C11.3121 19 11.6186 18.9214 11.8889 18.7722L18.1111 15.3715C18.3811 15.2224 18.6054 15.008 18.7614 14.7499C18.9174 14.4917 18.9997 14.1989 19 13.9007Z" fill="#1292EE"/>
</svg>
