<svg width="43" height="36" viewBox="0 0 43 36" fill="none" xmlns="http://www.w3.org/2000/svg">
<path d="M12.648 26.5L11.4 22.42H5.16L3.912 26.5H0L6.048 9.292H10.488L16.56 26.5H12.648ZM9.288 15.388C9.208 15.116 9.104 14.772 8.976 14.356C8.848 13.94 8.72 13.516 8.592 13.084C8.464 12.652 8.36 12.276 8.28 11.956C8.2 12.276 8.088 12.676 7.944 13.156C7.816 13.62 7.688 14.068 7.56 14.5C7.448 14.916 7.36 15.212 7.296 15.388L6.072 19.372H10.536L9.288 15.388Z" fill="#FFC459"/>
<path d="M0 29.5H16.56V30.7H0V29.5Z" fill="#FFC459"/>
<path d="M22.264 26.5H25.84V9.364H16.024V12.34H22.264V16.756H16.456V19.732H22.264V26.5Z" fill="#FFC459"/>
<path d="M28 29.5H14.824V30.7H28V29.5Z" fill="#FFC459"/>
<path d="M35.848 26.636C34.296 26.636 33.016 26.444 32.008 26.06C31 25.692 30.248 25.124 29.752 24.356C29.256 23.604 29.008 22.652 29.008 21.5C29.008 20.716 29.16 20.028 29.464 19.436C29.752 18.86 30.144 18.364 30.64 17.948C31.12 17.548 31.64 17.22 32.2 16.964L27.16 9.5L31.192 9.5L35.272 16.076L37.216 16.076L37.216 9.5L40.84 9.5L40.84 26.636L35.848 26.636ZM36.112 23.66L37.216 23.66L37.216 19.028L36.04 19.028C35.24 19.028 34.592 19.116 34.096 19.292C33.6 19.468 33.24 19.732 33.016 20.084C32.792 20.452 32.68 20.892 32.68 21.404C32.68 21.948 32.808 22.38 33.064 22.7C33.304 23.036 33.68 23.276 34.192 23.42C34.688 23.58 35.328 23.66 36.112 23.66Z" fill="#FFC459"/>
<path d="M43 6.5L27.16 6.5L27.16 5.3L43 5.3L43 6.5Z" fill="#FFC459"/>
</svg>
