<svg width="24" height="24" viewBox="0 0 24 24" fill="none" xmlns="http://www.w3.org/2000/svg">
<g clip-path="url(#clip0_129_13)">
<path d="M8.73 15.11C8.23 15.11 7.78667 15.0467 7.4 14.92C7.02 14.7867 6.7 14.5933 6.44 14.34C6.18 14.0867 5.98333 13.77 5.85 13.39C5.72333 13.0033 5.66 12.5567 5.66 12.05V8.65C5.66 8.39 5.72667 8.19333 5.86 8.06C5.99333 7.92667 6.18667 7.86 6.44 7.86C6.68667 7.86 6.87667 7.92667 7.01 8.06C7.14333 8.19333 7.21 8.39 7.21 8.65V12.06C7.21 12.6333 7.34 13.0667 7.6 13.36C7.86 13.6467 8.23667 13.79 8.73 13.79C9.22333 13.79 9.59667 13.6467 9.85 13.36C10.11 13.0667 10.24 12.6333 10.24 12.06V8.65C10.24 8.39 10.3067 8.19333 10.44 8.06C10.5733 7.92667 10.7633 7.86 11.01 7.86C11.2567 7.86 11.4433 7.92667 11.57 8.06C11.7033 8.19333 11.77 8.39 11.77 8.65V12.05C11.77 12.7233 11.6533 13.29 11.42 13.75C11.1933 14.2033 10.8533 14.5433 10.4 14.77C9.95333 14.9967 9.39667 15.11 8.73 15.11ZM13.5133 15.09C13.3133 15.09 13.1466 15.0367 13.0133 14.93C12.8866 14.8167 12.8133 14.68 12.7933 14.52C12.7733 14.3533 12.8266 14.1833 12.9533 14.01L15.1633 11.08V11.77L13.0433 8.95C12.9166 8.77 12.8599 8.6 12.8733 8.44C12.8933 8.27333 12.9666 8.13667 13.0933 8.03C13.2266 7.91667 13.3899 7.86 13.5833 7.86C13.7499 7.86 13.8933 7.9 14.0133 7.98C14.1399 8.06 14.2666 8.18667 14.3933 8.36L16.0433 10.64H15.5433L17.1833 8.36C17.3099 8.18 17.4366 8.05333 17.5633 7.98C17.6899 7.9 17.8366 7.86 18.0033 7.86C18.2033 7.86 18.3666 7.91333 18.4933 8.02C18.6266 8.12667 18.6999 8.26333 18.7133 8.43C18.7333 8.59 18.6766 8.76333 18.5433 8.95L16.4133 11.77V11.08L18.6133 14.01C18.7466 14.1833 18.8033 14.3533 18.7833 14.52C18.7699 14.68 18.6966 14.8167 18.5633 14.93C18.4366 15.0367 18.2699 15.09 18.0633 15.09C17.9033 15.09 17.7599 15.05 17.6333 14.97C17.5133 14.89 17.3866 14.76 17.2533 14.58L15.5333 12.21H16.0433L14.3233 14.58C14.1966 14.76 14.0699 14.89 13.9433 14.97C13.8166 15.05 13.6733 15.09 13.5133 15.09Z" fill="#F8FAFC"/>
<rect x="0.75" y="0.75" width="22.5" height="22.5" rx="3.25" stroke="#F8FAFC" stroke-width="1.5"/>
</g>
<defs>
<clipPath id="clip0_129_13">
<rect width="24" height="24" fill="white"/>
</clipPath>
</defs>
</svg>
